<?xml version="1.0" standalone="no"?>
<!DOCTYPE svg PUBLIC "-//W3C//DTD SVG 20010904//EN"
 "http://www.w3.org/TR/2001/REC-SVG-20010904/DTD/svg10.dtd">
<svg version="1.0" xmlns="http://www.w3.org/2000/svg"
 width="180.000000pt" height="180.000000pt" viewBox="0 0 180.000000 180.000000"
 preserveAspectRatio="xMidYMid meet">

<g transform="translate(0.000000,180.000000) scale(0.100000,-0.100000)"
fill="#000000" stroke="none">
<path d="M200 1099 l0 -231 118 4 c103 3 121 6 149 26 62 44 67 159 9 197
l-24 16 19 36 c24 48 24 80 -1 121 -29 47 -73 62 -180 62 l-90 0 0 -231z m210
151 c23 -23 26 -58 7 -84 -11 -15 -106 -45 -144 -46 -9 0 -13 22 -13 75 l0 75
65 0 c52 0 69 -4 85 -20z m4 -181 c35 -16 52 -61 36 -98 -15 -36 -53 -51 -131
-51 l-59 0 0 69 0 70 43 9 c59 14 82 14 111 1z"/>
<path d="M580 1100 l0 -230 135 0 135 0 0 25 c0 24 -1 24 -102 27 l-103 3 -3
203 -2 202 -30 0 -30 0 0 -230z"/>
<path d="M880 1168 c0 -177 10 -219 61 -264 85 -75 237 -51 287 46 20 41 22
58 22 212 l0 168 -30 0 -30 0 0 -165 c0 -97 -4 -174 -11 -188 -15 -33 -60 -57
-107 -57 -58 0 -89 15 -112 52 -18 29 -20 51 -20 196 l0 162 -30 0 -30 0 0
-162z"/>
<path d="M1330 1100 l0 -230 113 1 112 1 -82 16 -83 15 0 194 c0 146 3 195 13
198 6 2 55 10 107 18 l95 14 -137 2 -138 1 0 -230z"/>
<path d="M1424 1115 c-4 -9 0 -23 9 -32 21 -21 49 -9 45 19 -4 28 -45 38 -54
13z"/>
<path d="M200 570 l0 -192 99 4 c94 3 101 5 138 34 55 45 76 86 76 149 0 40
-7 65 -26 98 -36 62 -92 88 -203 95 l-84 5 0 -193z m189 112 c40 -21 71 -73
71 -118 0 -70 -76 -134 -157 -134 l-43 0 0 135 0 135 48 0 c27 0 62 -8 81 -18z"/>
<path d="M665 748 c-78 -29 -125 -97 -125 -181 0 -62 19 -105 63 -144 66 -57
136 -66 215 -27 173 86 121 349 -71 360 -29 2 -65 -2 -82 -8z m142 -64 c81
-51 80 -186 -1 -235 -58 -35 -142 -21 -183 31 -37 45 -34 132 5 180 37 46 126
58 179 24z"/>
<path d="M1065 746 c-70 -31 -115 -102 -115 -181 0 -60 19 -103 63 -142 55
-49 123 -64 188 -41 83 28 132 97 132 184 0 136 -146 234 -268 180z m159 -69
c106 -74 49 -247 -81 -247 -73 0 -113 31 -134 103 -10 36 3 95 29 126 22 28
89 51 127 44 17 -3 43 -15 59 -26z"/>
<path d="M1370 571 l0 -191 30 0 30 0 0 69 c0 98 15 99 92 6 55 -66 66 -75 97
-75 38 0 42 -8 -48 99 l-53 65 37 30 c46 37 59 68 45 112 -16 49 -51 66 -146
72 l-84 5 0 -192z m164 113 c32 -32 8 -69 -64 -97 l-40 -15 0 64 0 64 44 0
c27 0 51 -6 60 -16z"/>
</g>
</svg>
